<?xml version="1.0" standalone="no"?>
<!DOCTYPE svg PUBLIC "-//W3C//DTD SVG 20010904//EN"
 "http://www.w3.org/TR/2001/REC-SVG-20010904/DTD/svg10.dtd">
<svg version="1.0" xmlns="http://www.w3.org/2000/svg"
 width="1500.000000pt" height="500.000000pt" viewBox="0 0 1500.000000 500.000000"
 preserveAspectRatio="xMidYMid meet">

<g transform="translate(0.000000,500.000000) scale(0.100000,-0.100000)"
fill="#000000" stroke="none">
<path d="M3948 4423 l-3 -577 -700 -232 c-385 -127 -1030 -341 -1433 -474
-619 -204 -735 -246 -742 -264 -11 -28 10 -60 41 -64 13 -1 220 62 459 141
l435 143 5 -1519 c5 -1489 5 -1519 24 -1533 30 -21 11322 -21 11352 0 19 14
19 43 22 1555 1 848 5 1541 9 1541 3 0 172 -55 374 -121 358 -119 369 -121
394 -105 28 19 32 47 10 70 -8 8 -113 47 -233 86 -174 57 -2328 770 -2857 945
-71 24 -670 222 -1330 440 -660 219 -1300 431 -1423 471 l-223 74 -157 -1
-157 -1 405 -134 c223 -74 695 -231 1050 -349 1900 -629 3260 -1079 3628
-1200 l412 -136 0 -1088 c0 -598 -3 -1277 -7 -1509 l-6 -422 -5591 2 -5591 3
0 1484 0 1485 510 168 c281 93 814 270 1185 393 371 123 1240 410 1930 639
690 228 1424 471 1630 540 l375 124 -155 1 -155 1 -230 -75 c-127 -42 -535
-177 -907 -300 -372 -124 -681 -225 -687 -225 -8 0 -9 88 -4 300 l6 300 -50 0
-50 0 -7 -46 c-3 -26 -6 -170 -6 -320 l0 -273 -710 -236 c-391 -129 -715 -235
-720 -235 -6 0 -10 206 -10 555 l0 555 -55 0 -55 0 -2 -577z"/>
<path d="M8020 3985 c-30 -8 -127 -26 -215 -40 -88 -14 -230 -41 -315 -60 -85
-19 -195 -39 -243 -45 -126 -16 -134 -20 -143 -76 -3 -25 -3 -114 0 -198 4
-83 1 -407 -6 -721 -7 -313 -13 -605 -13 -648 l0 -79 -30 5 c-16 3 -42 10 -57
16 l-28 11 0 497 c0 277 4 525 10 558 5 32 6 63 2 67 -4 4 -73 21 -152 38 -80
16 -174 36 -210 44 -272 61 -424 97 -479 114 l-64 21 -186 -30 c-102 -16 -238
-39 -301 -50 -63 -11 -144 -23 -180 -27 l-65 -7 4 -517 3 -518 -48 15 c-27 7
-89 26 -139 40 -49 15 -110 31 -135 37 -40 9 -131 34 -260 73 -90 27 -116 28
-182 6 -35 -11 -90 -28 -123 -36 -33 -9 -109 -29 -170 -44 -60 -16 -178 -45
-261 -65 -84 -20 -176 -47 -206 -61 -51 -23 -56 -29 -93 -105 -22 -45 -44 -85
-50 -89 -5 -5 -64 13 -130 40 -177 72 -160 73 -327 -11 -78 -40 -147 -76 -153
-80 -5 -4 -113 -60 -240 -125 -126 -64 -249 -130 -272 -146 l-42 -29 5 -393
c3 -215 7 -407 10 -425 5 -32 11 -36 442 -248 240 -119 492 -243 559 -275
l123 -59 192 56 c106 30 256 73 333 94 175 48 396 114 585 175 167 54 159 51
350 105 187 52 367 108 407 126 17 8 36 14 43 14 6 0 73 19 148 41 75 23 143
43 150 45 6 2 12 15 12 29 0 14 4 25 10 25 12 0 82 -32 321 -146 109 -52 205
-94 215 -94 11 0 84 27 164 61 80 33 208 85 285 115 170 67 402 159 590 234
l140 56 3 89 c1 50 4 95 6 101 6 17 61 3 351 -89 44 -14 126 -38 183 -52 l104
-26 61 25 c87 34 155 56 174 56 13 0 15 -11 10 -82 -3 -46 -8 -93 -12 -105 -5
-16 -2 -22 12 -26 10 -3 65 -17 123 -32 169 -43 294 -81 553 -166 31 -11 123
-35 205 -54 81 -20 196 -52 255 -71 l108 -35 82 35 c45 19 99 42 120 51 l38
16 -2 -82 c-2 -96 -9 -90 136 -129 77 -21 296 -84 398 -114 47 -14 51 -14 137
20 49 19 93 34 98 34 4 0 19 -35 33 -77 l25 -78 55 -18 c29 -10 110 -33 179
-52 69 -18 193 -54 275 -80 83 -26 160 -49 171 -52 21 -5 139 69 554 346 110
74 295 190 327 206 2 1 -16 53 -38 116 -23 63 -63 175 -89 249 -27 74 -74 207
-105 295 -31 88 -91 256 -132 373 l-76 213 26 57 c14 31 35 84 47 117 33 94
148 382 312 780 86 210 84 201 61 210 -17 7 -398 68 -508 81 -43 5 -60 2 -103
-20 -45 -23 -53 -24 -58 -11 -4 8 -3 22 0 31 3 8 1 24 -4 35 -9 16 -22 19 -78
19 -37 0 -134 12 -217 26 -222 39 -235 39 -286 14 -56 -29 -270 -102 -277 -95
-3 3 -7 33 -8 68 -1 34 -2 65 -3 68 0 3 -52 11 -113 19 -62 7 -176 26 -253 42
-254 52 -444 87 -610 113 -55 8 -128 20 -161 26 -55 10 -68 8 -135 -14 -146
-49 -286 -84 -296 -73 -5 4 -7 59 -5 121 4 127 0 135 -72 135 -34 0 -99 10
-631 97 -308 50 -449 60 -535 38z m435 -45 c504 -79 665 -108 665 -120 0 -12
-108 -44 -308 -91 -89 -21 -215 -54 -280 -73 -64 -19 -149 -42 -189 -51 -89
-20 -97 -19 -563 94 -47 12 -159 37 -250 56 -201 43 -219 47 -220 60 0 5 34
15 77 22 43 8 105 22 138 32 33 10 130 29 215 41 85 13 202 33 260 46 127 28
193 25 455 -16z m772 -242 c-4 -68 -6 -124 -7 -124 0 -1 -21 -7 -47 -14 -27
-6 -138 -40 -248 -75 -110 -35 -236 -73 -280 -85 -44 -11 -87 -25 -95 -30 -12
-8 -16 -57 -21 -287 -4 -153 -13 -462 -20 -688 -7 -225 -13 -532 -13 -682 l0
-272 -61 -25 c-138 -58 -146 -60 -156 -45 -6 8 -7 62 -4 129 3 63 5 408 4 765
-3 903 -2 1128 8 1219 l8 79 85 24 c47 13 121 34 165 48 44 13 125 35 180 49
163 40 367 94 431 115 32 11 63 20 68 20 4 1 6 -54 3 -121z m-1971 88 c133
-24 325 -65 404 -87 41 -12 134 -33 205 -49 72 -15 155 -34 187 -43 31 -9 84
-21 118 -26 34 -6 67 -15 73 -20 9 -7 11 -278 10 -1063 -2 -579 -3 -1074 -3
-1100 1 -52 -3 -55 -60 -38 -19 6 -95 26 -169 46 -73 19 -163 46 -200 59 -36
13 -97 31 -134 41 -46 11 -71 23 -78 37 -7 12 -10 90 -8 218 l4 199 -31 10
c-16 6 -73 21 -125 34 -158 39 -313 88 -328 102 -13 11 -13 63 -3 376 7 200
12 577 12 839 0 262 3 479 7 482 4 4 14 5 23 2 10 -3 53 -12 96 -19z m2524
-141 c117 -17 256 -43 623 -116 137 -27 262 -49 278 -49 37 0 37 -14 2 -28
-91 -36 -172 -63 -245 -82 -121 -32 -533 -168 -603 -200 -117 -54 -123 -54
-336 -2 -90 22 -220 52 -289 67 -69 14 -161 34 -205 44 -298 69 -355 83 -355
89 0 9 494 163 645 202 66 16 165 43 220 59 117 35 127 35 265 16z m-3554
-218 c179 -45 438 -106 519 -123 147 -31 179 -40 182 -51 4 -11 -144 -50 -277
-73 -36 -6 -102 -20 -148 -31 -45 -10 -96 -19 -113 -19 -41 0 -225 37 -269 54
-31 12 -173 45 -400 92 -157 33 -294 69 -297 80 -2 6 73 21 199 38 112 15 244
36 293 46 108 23 178 20 311 -13z m4579 -38 l0 -64 -115 -43 c-63 -24 -216
-77 -339 -118 -184 -62 -231 -74 -262 -69 -34 6 -39 4 -43 -17 -3 -13 -7 -142
-11 -288 -5 -237 -7 -265 -23 -275 -36 -21 -253 -115 -266 -115 -20 0 -27 134
-24 426 3 209 6 244 21 267 10 15 22 27 27 27 5 0 33 11 62 24 78 35 283 107
443 156 77 23 194 60 260 82 153 51 247 77 260 74 6 -1 10 -31 10 -67z m668
-2 c65 -12 118 -26 117 -32 0 -5 -71 -40 -158 -76 -86 -36 -188 -80 -227 -99
-38 -18 -86 -38 -105 -45 -19 -7 -98 -44 -175 -81 -109 -53 -150 -68 -185 -68
-62 -1 -511 87 -507 98 2 5 43 24 93 42 49 18 159 58 244 89 265 97 574 206
605 214 17 4 62 1 105 -7 41 -7 128 -23 193 -35z m-5808 -122 c72 -15 150 -31
175 -36 25 -5 135 -31 245 -58 110 -28 217 -53 238 -57 57 -10 70 -28 62 -86
-4 -27 -2 -277 4 -556 15 -697 21 -1575 12 -1591 -6 -10 -49 6 -172 64 -90 42
-204 95 -252 118 -49 23 -93 49 -98 58 -5 9 -13 248 -18 530 -5 283 -12 521
-16 531 -3 9 -18 21 -33 26 -42 15 -247 77 -342 103 -47 12 -88 25 -91 28 -4
3 -10 229 -14 502 l-7 497 89 -23 c48 -13 147 -35 218 -50z m3023 59 c79 -14
143 -28 387 -84 44 -10 123 -25 175 -35 52 -9 118 -23 145 -31 28 -7 100 -25
160 -40 61 -14 118 -31 128 -36 17 -9 18 -31 15 -354 -3 -340 -3 -345 -23
-341 -11 3 -65 16 -120 30 -55 14 -140 33 -190 42 -49 9 -97 18 -105 20 -8 2
-19 4 -23 4 -5 1 -7 40 -5 88 l3 88 -65 22 c-36 13 -70 23 -76 23 -8 0 -13
-88 -17 -302 -8 -451 -15 -662 -22 -754 l-7 -82 70 -16 c39 -9 76 -16 81 -16
7 0 11 47 11 135 0 101 3 135 13 135 16 -1 487 -116 492 -121 2 -2 5 -188 6
-413 3 -298 0 -411 -8 -413 -6 -2 -51 8 -100 22 -48 15 -106 31 -128 35 -92
20 -315 80 -346 94 -54 24 -312 102 -470 142 l-147 37 5 496 c3 273 6 561 8
641 2 80 6 305 9 500 4 195 9 388 12 428 7 84 -1 80 132 56z m3332 -24 c63
-11 157 -26 208 -33 51 -6 92 -16 91 -22 0 -5 -76 -42 -167 -81 -92 -39 -285
-122 -429 -184 -152 -65 -276 -112 -295 -112 -18 0 -126 16 -240 36 -114 20
-212 36 -218 36 -5 0 -10 5 -10 10 0 17 251 129 585 260 61 24 146 61 190 82
90 44 78 43 285 8z m-5075 -616 c0 -291 1 -631 3 -756 l2 -227 83 29 c110 38
313 111 415 149 121 45 118 46 125 -51 4 -46 7 -179 7 -295 0 -249 16 -219
-150 -282 -58 -21 -206 -78 -330 -126 -124 -49 -265 -103 -315 -122 -135 -52
-308 -125 -323 -136 -7 -5 -14 -8 -17 -6 -11 12 -40 2132 -29 2201 3 20 11 41
17 47 11 8 89 25 252 52 33 5 101 20 150 33 50 13 95 23 100 22 7 -2 10 -187
10 -532z m5386 478 c-11 -26 -47 -111 -80 -190 -34 -78 -61 -145 -61 -148 0
-3 -47 -123 -104 -267 -57 -144 -112 -287 -121 -317 -38 -120 -19 -106 -427
-301 -158 -75 -316 -153 -350 -173 -76 -46 -84 -47 -80 -16 7 56 77 297 142
490 37 113 94 288 125 390 31 102 64 192 73 201 16 15 355 169 372 169 5 0 37
13 72 29 49 23 287 124 423 180 32 14 36 3 16 -47z m-2156 -107 c39 -4 124
-20 190 -36 66 -16 158 -34 205 -39 47 -6 99 -14 115 -18 l30 -9 -2 -236 c-1
-130 2 -237 6 -237 9 0 17 17 57 135 39 112 112 276 133 298 18 18 23 18 177
-12 88 -17 191 -36 231 -42 39 -7 77 -15 83 -19 14 -8 -5 -75 -116 -410 -97
-291 -138 -425 -179 -585 -18 -71 -34 -134 -36 -140 -3 -9 32 -137 50 -180 12
-28 36 -106 62 -200 12 -44 43 -145 69 -225 26 -80 51 -158 54 -175 4 -16 24
-84 45 -150 21 -66 55 -174 76 -240 20 -66 46 -135 56 -154 31 -53 13 -57 -96
-22 -53 17 -103 31 -111 31 -8 0 -22 4 -32 10 -9 5 -78 26 -152 45 -74 20
-142 40 -150 44 -8 4 -38 13 -67 20 l-51 13 -60 186 c-33 103 -84 260 -112
349 -35 110 -56 163 -66 163 -9 0 -14 -11 -14 -27 -1 -99 -20 -566 -23 -569
-5 -5 -530 146 -540 156 -5 4 -4 165 2 356 7 192 18 558 27 814 8 256 17 580
20 720 7 347 11 402 32 396 10 -3 49 -8 87 -11z m-5350 -589 c72 -20 153 -43
180 -51 28 -9 122 -36 210 -60 88 -25 183 -51 210 -59 28 -8 109 -31 180 -51
72 -21 134 -41 139 -45 4 -5 -14 -11 -40 -15 -27 -3 -110 -17 -184 -31 -74
-13 -211 -38 -305 -55 -93 -16 -228 -43 -300 -60 -140 -31 -187 -35 -232 -18
-15 6 -50 17 -78 24 -98 27 -731 218 -765 231 -27 11 37 30 397 119 121 30
261 68 310 84 48 17 102 28 118 26 17 -1 89 -19 160 -39z m5198 -93 c-3 -60
-6 -114 -9 -121 -3 -12 -277 -149 -331 -166 l-23 -7 0 145 0 145 33 -6 c25 -4
64 9 172 56 77 33 145 60 151 61 7 0 9 -34 7 -107z m-6 -260 c-4 -54 -7 -137
-7 -184 l0 -87 -32 -12 c-18 -7 -81 -35 -139 -62 l-106 -50 -209 52 c-115 28
-224 56 -243 62 l-35 11 145 71 c79 39 207 101 283 136 77 36 183 86 235 112
53 26 100 47 105 47 5 1 6 -40 3 -96z m-6527 37 c41 -15 143 -52 226 -83 83
-31 180 -63 215 -72 35 -9 118 -33 184 -55 66 -21 146 -46 178 -55 31 -8 57
-19 57 -23 0 -4 -80 -50 -177 -102 -97 -52 -211 -115 -252 -138 -42 -24 -129
-70 -193 -103 l-117 -59 -58 14 c-312 75 -963 280 -963 302 0 13 28 28 505
271 193 98 286 140 300 136 11 -3 54 -18 95 -33z m2332 -35 c8 -72 31 -1053
25 -1069 -3 -6 -47 -24 -98 -40 -212 -63 -299 -90 -629 -187 -190 -56 -502
-149 -695 -206 -192 -57 -372 -110 -400 -118 -27 -8 -119 -35 -204 -61 -108
-32 -156 -42 -161 -34 -4 6 -10 147 -13 313 -4 166 -10 399 -13 518 l-7 216
84 43 c137 70 251 132 293 158 59 37 356 192 367 192 6 0 51 -36 101 -80 50
-44 93 -80 97 -80 7 0 26 34 101 175 28 55 60 107 69 115 24 21 358 91 781
165 52 9 127 22 165 30 39 7 84 12 100 12 29 -2 30 -4 37 -62z m1503 -105 c99
-29 184 -56 189 -60 13 -12 -20 -26 -208 -90 -96 -32 -193 -67 -217 -78 -61
-26 -99 -42 -104 -42 -3 0 -5 83 -5 184 l0 185 83 -24 c45 -12 163 -46 262
-75z m4659 -130 c25 -69 68 -190 96 -270 54 -153 124 -350 209 -589 41 -116
49 -147 39 -156 -7 -6 -65 -45 -128 -85 -63 -40 -151 -97 -195 -125 -44 -28
-138 -89 -210 -135 -71 -45 -160 -103 -198 -128 -41 -28 -71 -42 -76 -36 -16
16 -77 184 -116 319 -99 341 -132 448 -210 685 -46 140 -87 272 -91 292 -6 35
-4 38 43 68 53 34 268 140 438 216 60 27 157 74 215 104 l105 55 18 -45 c9
-25 37 -101 61 -170z m-1978 -112 c-3 -24 -8 -182 -12 -353 -3 -170 -9 -343
-13 -383 l-6 -74 -100 -44 c-55 -24 -105 -44 -112 -44 -15 0 -19 145 -15 539
l3 293 41 16 c22 9 75 33 117 53 100 49 103 49 97 -3z m-7166 -108 c248 -82
331 -107 633 -190 65 -18 119 -36 121 -39 2 -3 9 -208 15 -456 6 -247 13 -476
16 -507 3 -35 1 -58 -5 -58 -6 0 -246 116 -534 259 l-523 258 -7 269 c-3 148
-9 336 -13 418 -6 144 -5 149 13 142 10 -5 138 -48 284 -96z m6346 -42 c-3
-17 -8 -33 -10 -36 -7 -6 -86 9 -86 17 0 7 78 49 94 50 5 1 6 -13 2 -31z"/>
<path d="M7618 2977 c-3 -116 -5 -374 -4 -571 l1 -360 64 -19 c35 -10 69 -16
77 -13 11 4 14 53 15 263 1 142 4 389 8 549 3 160 5 298 3 306 -3 14 -60 36
-133 52 l-27 6 -4 -213z m122 -902 c0 -19 -5 -25 -22 -25 -13 1 -34 7 -47 14
l-24 13 29 11 c49 18 64 15 64 -13z"/>
<path d="M5305 1619 c-109 -38 -205 -69 -213 -69 -27 0 -111 -43 -116 -59 -3
-9 -6 -43 -8 -76 -4 -76 5 -78 115 -31 45 19 105 40 132 46 28 7 73 18 100 25
28 8 66 17 85 20 46 7 132 35 148 48 12 10 17 122 6 151 -3 9 -16 16 -28 15
-11 0 -111 -32 -221 -70z m106 -51 c49 -18 89 -36 89 -40 0 -9 -35 -18 -207
-57 -72 -16 -164 -43 -205 -60 -101 -43 -102 -43 -94 27 4 31 12 59 19 62 48
18 285 98 296 99 8 0 54 -14 102 -31z"/>
<path d="M4340 1326 c-70 -27 -193 -81 -260 -115 -20 -11 -25 -90 -7 -115 14
-19 16 -19 88 8 41 15 119 41 173 57 55 15 103 32 108 37 9 9 -1 163 -11 161
-3 -1 -44 -15 -91 -33z m-6 -79 c33 -18 59 -36 59 -42 0 -7 -269 -92 -300 -95
-2 0 -3 19 -3 43 l1 42 87 42 c48 23 89 42 92 42 3 0 32 -14 64 -32z"/>
</g>
</svg>
